PathFileType	4	(X/Y/Z)	C:/Users/opensim2020/Desktop/walking_exp_matlab/subject03_walking04_straight_03.trc																																																																																																																																																							
DataRate	CameraRate	NumFrames	NumMarkers	Units	OrigDataRate	OrigDataStartFrame	OrigNumFrames																																																																																																																																																			
100	100	4	51	mm	100	2245	256																																																																																																																																																			
Frame#	Time	LFHD			RFHD			LBHD			RBHD			C7			T10			CLAV			STRN			RBAK			LSHO			LUPA			LELB			LFRM			LWRA			LWRB			LFIN			RSHO			RUPA			RELB			RFRM			RWRA			RWRB			RFIN			LASI			RASI			LPSI			RPSI			LTHI			LKNE			LTIB			LANK			LHEE			LTOE			RTHI			RKNE			RTIB			RANK			RHEE			RTOE			*39			*40			*41			*42			*43			*44			*45			*46			*47			*48			*49			*50		
		X1	Y1	Z1	X2	Y2	Z2	X3	Y3	Z3	X4	Y4	Z4	X5	Y5	Z5	X6	Y6	Z6	X7	Y7	Z7	X8	Y8	Z8	X9	Y9	Z9	X10	Y10	Z10	X11	Y11	Z11	X12	Y12	Z12	X13	Y13	Z13	X14	Y14	Z14	X15	Y15	Z15	X16	Y16	Z16	X17	Y17	Z17	X18	Y18	Z18	X19	Y19	Z19	X20	Y20	Z20	X21	Y21	Z21	X22	Y22	Z22	X23	Y23	Z23	X24	Y24	Z24	X25	Y25	Z25	X26	Y26	Z26	X27	Y27	Z27	X28	Y28	Z28	X29	Y29	Z29	X30	Y30	Z30	X31	Y31	Z31	X32	Y32	Z32	X33	Y33	Z33	X34	Y34	Z34	X35	Y35	Z35	X36	Y36	Z36	X37	Y37	Z37	X38	Y38	Z38	X39	Y39	Z39	X40	Y40	Z40	X41	Y41	Z41	X42	Y42	Z42	X43	Y43	Z43	X44	Y44	Z44	X45	Y45	Z45	X46	Y46	Z46	X47	Y47	Z47	X48	Y48	Z48	X49	Y49	Z49	X50	Y50	Z50	X51	Y51	Z51
																																																																																																																																																										
1	0	-1138.08936	1623.59717	-1213.44629	-1156.2655	1625.09387	-1082.13147	-1261.39038	1565.97473	-1227.40845	-1273.72168	1567.2334	-1095.46387	-1291.63452	1422.0061	-1177.31433	-1349.39355	1112.95789	-1179.30725	-1173.0332	1339.19641	-1161.672	-1143.08813	1170.16431	-1168.94055	-1366.05273	1251.93835	-1089.29553	-1196.44629	1379.92932	-1318.51453	-1165.16382	1201.63013	-1413.69299	-1128.61487	1088.31616	-1436.94275	-1060.03503	978.53961	-1447.20313	-999.30157	874.19385	-1426.03943	-1021.93207	874.33698	-1476.42444	-972.70459	806.36615	-1474.72559	-1237.7301	1366.15601	-1008.4964	-1256.81677	1144.14258	-937.82269	-1245.40417	1031.58936	-926.44995	-1225.83081	896.28827	-928.59283	-1189.43726	804.15558	-965.50348	-1223.60278	795.59607	-925.03101	-1196.91016	726.85114	-935.63123	-1190.62341	937.72827	-1291.14307	-1195.37268	936.38892	-1053.71948	-1351.33655	974.81232	-1240.5863	-1352.00574	973.17645	-1092.18347	-1287.23413	644.41559	-1330.70068	-1296.81628	463.4899	-1295.33667	-1367.31006	281.23035	-1298.92957	-1404.19556	70.19177	-1259.38916	-1441.52673	40.28868	-1223.84717	-1248.32837	27.20651	-1243.1051	-1185.73608	644.78912	-1022.41241	-1121.5459	478.84143	-1065.39343	-1199.32886	302.35004	-1064.78662	-1281.21179	102.62728	-1111.15808	-1336.08533	81.03735	-1161.02344	-1158.40381	41.99381	-1138.85474	NaN	NaN	NaN	NaN	NaN	NaN	NaN	NaN	NaN	NaN	NaN	NaN	NaN	NaN	NaN	NaN	NaN	NaN	NaN	NaN	NaN	NaN	NaN	NaN	NaN	NaN	NaN	NaN	NaN	NaN	NaN	NaN	NaN	NaN	NaN	NaN
2	0.01	-1130.65845	1622.93835	-1213.97864	-1149.37634	1624.55396	-1083.02319	-1254.27856	1565.65881	-1228.47595	-1266.95471	1566.94897	-1096.55249	-1284.62927	1421.70459	-1178.93408	-1342.26807	1112.41113	-1181.17444	-1165.74316	1338.62317	-1161.55066	-1136.04211	1169.74902	-1169.72046	-1359.68091	1251.32202	-1091.7926	-1188.36133	1379.49365	-1319.46741	-1156.38086	1200.82581	-1412.92834	-1119.27783	1087.5033	-1435.98853	-1050.01978	977.90173	-1444.12854	-989.11285	874.16425	-1421.19189	-1010.79688	873.75958	-1472.05542	-961.36255	805.87115	-1468.5498	-1232.21619	1365.28955	-1009.7901	-1252.31665	1143.26343	-939.54486	-1241.03015	1030.70337	-928.2323	-1221.54395	895.35516	-930.4361	-1184.93799	803.26373	-967.24292	-1219.39734	794.66248	-927.0506	-1192.84241	725.99725	-937.46704	-1183.38794	937.04169	-1292.85254	-1188.33948	936.07788	-1055.30078	-1344.06287	974.29926	-1242.32361	-1345.02051	972.8562	-1093.94421	-1279.6593	643.74316	-1332.5708	-1292.69214	463.77756	-1296.26587	-1365.43115	281.47571	-1299.12354	-1403.75806	70.65416	-1259.11963	-1441.25732	41.0435	-1223.61389	-1248.06555	27.25482	-1243.30835	-1177.38586	644.76147	-1023.14215	-1112.47412	479.45074	-1066.83154	-1182.91284	299.92209	-1066.87	-1255.17322	96.69946	-1114.51489	-1308.72717	72.90673	-1164.28796	-1129.64221	41.44713	-1141.8855	NaN	NaN	NaN	NaN	NaN	NaN	NaN	NaN	NaN	NaN	NaN	NaN	NaN	NaN	NaN	NaN	NaN	NaN	NaN	NaN	NaN	NaN	NaN	NaN	NaN	NaN	NaN	NaN	NaN	NaN	NaN	NaN	NaN	NaN	NaN	NaN
3	0.02	-1123.36499	1622.29736	-1214.6543	-1142.49854	1623.9281	-1083.74878	-1246.91248	1565.07263	-1229.60095	-1259.93347	1566.39478	-1097.69849	-1277.58301	1421.17944	-1180.37048	-1335.07568	1111.82373	-1182.91589	-1158.86401	1337.85303	-1162.51147	-1129.08936	1168.72986	-1170.50781	-1353.20569	1250.61853	-1094.00195	-1180.42566	1379.05908	-1320.4668	-1147.90723	1199.94873	-1412.03357	-1110.25037	1086.6178	-1434.90393	-1040.29956	977.38416	-1441.28662	-979.14038	874.12585	-1416.31799	-999.8429	873.24445	-1467.6322	-950.08368	805.35718	-1462.23328	-1226.27588	1364.35974	-1010.92297	-1247.62866	1142.28369	-941.18671	-1236.51086	1029.69861	-930.0025	-1217.34009	894.28192	-932.25116	-1180.60291	802.07996	-969.00287	-1215.21765	793.54163	-929.06384	-1188.64551	724.84619	-939.33698	-1176.32544	936.38702	-1294.46912	-1181.19263	935.71765	-1056.75671	-1336.82019	973.83258	-1244.07715	-1337.92725	972.40393	-1095.58545	-1272.25757	643.10248	-1334.34802	-1289.98364	462.69305	-1296.04517	-1363.42212	281.70236	-1299.23804	-1403.32727	71.30695	-1258.95264	-1441.03247	41.85353	-1223.23499	-1248.14941	27.01219	-1243.30139	-1169.7981	644.80823	-1023.87079	-1103.73328	479.80536	-1068.14404	-1166.64172	297.57904	-1068.68921	-1228.95862	91.37364	-1117.43677	-1281.14929	65.3567	-1167.36865	-1100.97766	41.34252	-1144.58276	NaN	NaN	NaN	NaN	NaN	NaN	NaN	NaN	NaN	NaN	NaN	NaN	NaN	NaN	NaN	NaN	NaN	NaN	NaN	NaN	NaN	NaN	NaN	NaN	NaN	NaN	NaN	NaN	NaN	NaN	NaN	NaN	NaN	NaN	NaN	NaN
4	0.03	-1115.87988	1621.47119	-1215.07556	-1135.5304	1623.26587	-1084.53015	-1239.70288	1564.53882	-1230.59473	-1253.06897	1565.89258	-1098.71387	-1270.31384	1420.37549	-1181.64966	-1328.10901	1111.35364	-1184.70642	-1151.86804	1337.14526	-1163.30298	-1122.0835	1167.97375	-1171.63416	-1346.59607	1249.85486	-1096.00623	-1172.35266	1378.35803	-1321.11121	-1139.61963	1198.88574	-1411.13501	-1101.40869	1085.54639	-1433.81604	-1030.81494	976.8092	-1438.35852	-969.32526	874.22955	-1411.53552	-989.18237	872.65643	-1463.17871	-939.2287	804.80786	-1455.8457	-1220.31128	1363.38025	-1012.00293	-1242.70654	1141.21289	-942.87622	-1231.84436	1028.6001	-931.74603	-1212.7738	893.15057	-934.18402	-1176.09082	800.92023	-970.66803	-1211.21814	792.39508	-931.10205	-1184.77808	723.633	-941.1936	-1168.75916	935.56488	-1295.78613	-1174.05237	935.19043	-1058.10034	-1329.4364	973.01477	-1245.59485	-1330.82007	971.87122	-1097.17822	-1264.35205	642.29443	-1335.82581	-1286.47961	462.18124	-1296.28418	-1361.36353	281.83002	-1299.28027	-1401.75024	73.06848	-1259.71497	-1440.80908	42.62085	-1222.92114	-1248.11743	26.96914	-1243.36597	-1163.3667	644.5957	-1024.88489	-1095.3866	479.92502	-1069.32849	-1150.31592	295.23218	-1070.30103	-1202.38354	86.31624	-1119.71826	-1254.05847	59.01809	-1170.04517	-1072.37854	41.60349	-1147.00562	NaN	NaN	NaN	NaN	NaN	NaN	NaN	NaN	NaN	NaN	NaN	NaN	NaN	NaN	NaN	NaN	NaN	NaN	NaN	NaN	NaN	NaN	NaN	NaN	NaN	NaN	NaN	NaN	NaN	NaN	NaN	NaN	NaN	NaN	NaN	NaN
